<?xml version="1.0" standalone="no"?>
<svg xmlns="http://www.w3.org/2000/svg" viewBox="0 0 159.9 24.36" width="159.9" height="24.36"><path fill="#000000" fill-rule="nonzero" d="M2.16 15.84L2.16 2.88Q2.16 1.66 1.82 1.07Q1.49 0.48 0.48 0.48L0.48 0.48L0 0.48L0 0L6.24 0Q8.86 0 10.79 0.86Q12.72 1.73 12.72 4.20L12.72 4.20Q12.72 5.33 11.95 6.24Q11.18 7.15 9.60 7.68L9.60 7.68Q11.81 8.04 12.68 8.99Q13.56 9.94 13.56 11.52L13.56 11.52Q13.56 13.94 11.65 14.89Q9.74 15.84 6.96 15.84L6.96 15.84L2.16 15.84ZM4.32 7.32L6.60 7.32Q7.58 7.32 8.46 6.95Q9.34 6.58 9.89 5.84Q10.44 5.11 10.44 4.08L10.44 4.08Q10.44 3 9.79 2.27Q9.14 1.54 8.15 1.19Q7.15 0.84 6.12 0.84L6.12 0.84Q5.28 0.84 4.32 1.08L4.32 1.08L4.32 7.32ZM6.60 15Q8.78 15 9.97 14.14Q11.16 13.27 11.16 11.64L11.16 11.64Q11.16 10.01 10.00 9.14Q8.83 8.28 6.60 8.28L6.60 8.28L4.32 8.28L4.32 14.66Q5.47 15 6.60 15L6.60 15ZM16.37 15.84L16.37 2.88Q16.37 1.66 16.03 1.07Q15.70 0.48 14.69 0.48L14.69 0.48L14.21 0.48L14.21 0L16.37 0Q17.26 0 17.70 0.23Q18.14 0.46 18.34 1.06Q18.53 1.66 18.53 2.88L18.53 2.88L18.53 15.84L16.37 15.84ZM26.71 16.08Q25.08 16.08 23.88 15.30Q22.68 14.52 22.06 13.18Q21.43 11.83 21.43 10.20L21.43 10.20Q21.43 8.57 22.06 7.22Q22.68 5.88 23.88 5.10Q25.08 4.32 26.71 4.32L26.71 4.32Q28.34 4.32 29.54 5.10Q30.74 5.88 31.37 7.22Q31.99 8.57 31.99 10.20L31.99 10.20Q31.99 11.83 31.37 13.18Q30.74 14.52 29.54 15.30Q28.34 16.08 26.71 16.08L26.71 16.08ZM26.71 15.12Q27.60 15.12 28.28 14.47Q28.97 13.82 29.34 12.70Q29.71 11.57 29.71 10.20L29.71 10.20Q29.71 8.83 29.34 7.70Q28.97 6.58 28.28 5.93Q27.60 5.28 26.71 5.28L26.71 5.28Q25.82 5.28 25.14 5.93Q24.46 6.58 24.08 7.70Q23.71 8.83 23.71 10.20L23.71 10.20Q23.71 11.57 24.08 12.70Q24.46 13.82 25.14 14.47Q25.82 15.12 26.71 15.12L26.71 15.12ZM39.43 16.08Q37.70 16.08 36.52 15.30Q35.33 14.52 34.74 13.19Q34.15 11.86 34.15 10.20L34.15 10.20Q34.15 8.54 34.74 7.21Q35.33 5.88 36.52 5.10Q37.70 4.32 39.43 4.32L39.43 4.32Q42.07 4.32 42.91 5.16L42.91 5.16Q43.32 5.57 43.42 6.16Q43.51 6.74 43.51 8.28L43.51 8.28L43.03 8.28Q42.94 6.79 42.10 6.04Q41.26 5.28 39.91 5.28L39.91 5.28Q38.18 5.28 37.31 6.65Q36.43 8.02 36.43 10.20L36.43 10.20Q36.43 12.38 37.31 13.75Q38.18 15.12 39.91 15.12L39.91 15.12Q41.14 15.12 41.93 14.65Q42.72 14.18 43.39 13.20L43.39 13.20L43.87 13.56Q43.08 14.90 42 15.49Q40.92 16.08 39.43 16.08L39.43 16.08ZM54.91 16.08Q52.87 16.08 51.43 14.16L51.43 14.16L48.55 10.32L48.55 15.84L46.39 15.84L46.39 2.88Q46.39 1.66 46.06 1.07Q45.72 0.48 44.71 0.48L44.71 0.48L44.23 0.48L44.23 0L46.39 0Q47.28 0 47.72 0.23Q48.17 0.46 48.36 1.06Q48.55 1.66 48.55 2.88L48.55 2.88L48.55 9.96L51.55 6.12Q52.18 5.35 52.87 4.96Q53.57 4.56 54.67 4.56L54.67 4.56L55.39 4.56L55.39 5.16Q54.74 5.16 54.14 5.42Q53.54 5.69 53.11 6.24L53.11 6.24L50.47 9.60L53.47 13.44Q54.17 14.35 54.78 14.81Q55.39 15.26 56.11 15.38L56.11 15.38L56.11 15.84Q55.58 16.08 54.91 16.08L54.91 16.08ZM64.85 15.84L64.85 2.88Q64.85 1.66 64.51 1.07Q64.18 0.48 63.17 0.48L63.17 0.48L62.69 0.48L62.69 0L64.85 0Q65.74 0 66.18 0.23Q66.62 0.46 66.82 1.06Q67.01 1.66 67.01 2.88L67.01 2.88L67.01 7.20L74.21 7.20L74.21 0L76.37 0L76.37 12.96Q76.37 14.18 76.70 14.77Q77.04 15.36 78.05 15.36L78.05 15.36L78.53 15.36L78.53 15.84L76.37 15.84Q75.48 15.84 75.04 15.61Q74.59 15.38 74.40 14.78Q74.21 14.18 74.21 12.96L74.21 12.96L74.21 8.16L67.01 8.16L67.01 15.84L64.85 15.84ZM83.02 16.08Q82.25 16.08 81.46 15.76Q80.66 15.43 80.10 14.69Q79.54 13.94 79.54 12.72L79.54 12.72Q79.54 10.90 81.23 10.13Q82.92 9.36 85.66 9.36L85.66 9.36L86.38 9.36Q86.38 7.01 85.73 6.14Q85.08 5.28 83.86 5.28L83.86 5.28Q82.78 5.28 82.13 5.74Q81.48 6.19 81.22 7.32L81.22 7.32L80.14 7.32Q80.14 6.50 80.23 6.04Q80.33 5.57 80.74 5.16L80.74 5.16Q81.17 4.73 82.16 4.52Q83.16 4.32 84.34 4.32L84.34 4.32Q86.28 4.32 87.41 5.36Q88.54 6.41 88.54 9.36L88.54 9.36L88.54 15.84L87.34 15.84L86.50 14.76L86.38 14.76Q85.94 15.31 85.10 15.70Q84.26 16.08 83.02 16.08L83.02 16.08ZM84.10 15Q84.89 15 85.42 14.62Q85.94 14.23 86.38 13.56L86.38 13.56L86.38 10.32L85.66 10.32Q83.88 10.32 82.85 10.98Q81.82 11.64 81.82 12.72L81.82 12.72Q81.82 13.82 82.48 14.41Q83.14 15 84.10 15L84.10 15ZM92.23 15.84L92.23 7.44Q92.23 6.22 91.90 5.63Q91.56 5.04 90.55 5.04L90.55 5.04L90.07 5.04L90.07 4.56L92.23 4.56Q93.12 4.56 93.59 4.80Q94.06 5.04 94.27 5.52L94.27 5.52L94.39 5.52Q94.90 5.02 95.70 4.67Q96.50 4.32 97.51 4.32L97.51 4.32Q99.31 4.32 100.45 5.28Q101.59 6.24 101.59 8.64L101.59 8.64L101.59 15.84L99.43 15.84L99.43 8.64Q99.43 6.96 98.68 6.18Q97.92 5.40 96.79 5.40L96.79 5.40Q95.52 5.40 94.39 6.67L94.39 6.67L94.39 15.84L92.23 15.84ZM108.70 16.08Q105.94 16.08 104.98 15.12L104.98 15.12Q104.57 14.71 104.47 14.20Q104.38 13.68 104.38 12.60L104.38 12.60L104.86 12.60Q105.07 13.80 105.90 14.46Q106.73 15.12 108.22 15.12L108.22 15.12Q109.54 15.12 110.20 14.66Q110.86 14.21 110.86 13.44L110.86 13.44Q110.86 12.74 110.34 12.24Q109.82 11.74 108.70 11.28L108.70 11.28L107.26 10.68Q105.82 10.10 105.10 9.34Q104.38 8.57 104.38 7.44L104.38 7.44Q104.38 5.98 105.48 5.15Q106.58 4.32 108.34 4.32L108.34 4.32Q110.98 4.32 111.94 5.28L111.94 5.28Q112.34 5.69 112.44 6.19Q112.54 6.70 112.54 7.80L112.54 7.80L112.06 7.80Q111.86 6.60 111.05 5.94Q110.23 5.28 108.82 5.28L108.82 5.28Q107.69 5.28 107.05 5.75Q106.42 6.22 106.42 6.96L106.42 6.96Q106.42 8.21 108.34 9L108.34 9L109.78 9.60Q111.41 10.27 112.15 11.03Q112.90 11.78 112.90 12.96L112.90 12.96Q112.90 14.42 111.72 15.25Q110.54 16.08 108.70 16.08L108.70 16.08Z" transform="translate(0, 4.141)"></path><line x1="121.896" y1="2%" x2="121.896" y2="98%" stroke="#000000" stroke-linecap="round"></line><g fill="#190606" color="#190606" transform="translate(130.89600000000002 0) scale(0.58)"><svg width="50.0" height="42.0" x="0.0" y="0.0" viewBox="0 0 50 42"><path fill="currentColor" fill-rule="nonzero" d="M21.3 13.56l5.81 12.46-10.95-2.3-5.81-12.46 10.95 2.3zm20.86-9.73l5.81 12.46-10.95-2.3-5.81-12.46 10.95 2.3zm-8.91 36.83L8.44 36.19 16 24.99l12.1 2.54c.05.01.09.01.13.01.09 0 .18-.02.27-.06.01 0 .01-.01.01-.01.03-.01.05-.04.08-.06.03-.02.05-.05.08-.07.03-.03.07-.05.09-.08l8.11-12.01 11.19 2.35-14.81 23.06zm16.45-23.3c.01-.02.02-.03.03-.05.01-.05-.02-.08-.03-.13 0-.07.01-.13-.02-.2-.01-.02.01-.05-.01-.07L43.19 3c-.01-.02-.03-.02-.03-.03-.04-.07-.11-.11-.18-.16-.07-.05-.12-.11-.2-.14-.02-.01-.02-.02-.04-.03L30.22.01c-.04-.01-.08.03-.13.03-.07 0-.13 0-.19.02-.03.01-.06-.01-.08 0-.01.01-.02.03-.03.03-.05.03-.08.07-.12.12-.03.03-.08.03-.11.07l-8.11 12.01-12.1-2.54c-.05-.01-.08.02-.13.02-.07 0-.12 0-.19.02-.03.01-.06-.01-.08.01-.02.01-.02.03-.03.03-.05.03-.08.07-.12.12-.03.03-.08.03-.11.07L.34 22.37c-.02.02 0 .05-.02.08-.04.08-.04.15-.05.23-.01.08-.02.16.01.24.02.03 0 .05.01.08l6.49 13.91c.01.02.03.03.05.05.02.04.04.06.07.09.03.03.05.06.08.08.01.01.01.03.02.04 0 0 .01 0 .01.01.05.03.11.04.17.05.03.01.04.04.06.04l26.2 4.72a.61.61 0 0 0 .48-.12c.03-.02.05-.05.08-.07.03-.03.07-.05.1-.09l15.54-24.18c.02-.02 0-.05.01-.07.02-.04.03-.07.05-.1z"></path></svg></g></svg>